<svg xmlns="http://www.w3.org/2000/svg" width="800" height="800" viewBox="0 0 71 30">
    <style>
        @font-face {
            font-family: 'lato-bold';
            src: url('assets/fonts/Lato-Bold.ttf') format('truetype');
        }
    </style>
    <defs>
        <linearGradient id="updated-gradient" x1="0%" y1="100%" x2="100%" y2="0%">
            <stop offset="0%" stop-color="#F2055C" />
            <stop offset="25%" stop-color="#D96299" />
            <stop offset="50%" stop-color="#9B5CF2" />
            <stop offset="75%" stop-color="#F28705" />
            <stop offset="100%" stop-color="#F25E3D" />
        </linearGradient>

        <filter id="gradient-shadow" x="-50%" y="-50%" width="200%" height="200%">
            <feGaussianBlur in="SourceAlpha" stdDeviation="2" result="blur" />
            <feOffset dx="1" dy="1" result="offsetBlur" />
            <feMerge>
                <feMergeNode in="offsetBlur" />
                <feMergeNode in="SourceGraphic" />
            </feMerge>
        </filter>
    </defs>

    <!-- background -->
    <g fill="#61dafb30" transform="scale(0.17)">
        <path
            d="m666.3 296.5c0-32.5-40.7-63.3-103.1-82.4 14.4-63.6 8-114.2-20.2-130.4-6.5-3.8-14.1-5.6-22.4-5.6v22.3c4.6 0 8.3.9 11.4 2.6 13.6 7.8 19.5 37.5 14.9 75.7-1.1 9.4-2.9 19.3-5.1 29.4-19.6-4.8-41-8.5-63.5-10.9-13.5-18.5-27.5-35.3-41.6-50 32.6-30.3 63.2-46.9 84-46.9v-22.3c-27.5 0-63.5 19.6-99.9 53.6-36.4-33.8-72.4-53.2-99.9-53.2v22.3c20.7 0 51.4 16.5 84 46.6-14 14.7-28 31.4-41.3 49.9-22.6 2.4-44 6.1-63.6 11-2.3-10-4-19.7-5.2-29-4.7-38.2 1.1-67.9 14.6-75.8 3-1.8 6.9-2.6 11.5-2.6v-22.3c-8.4 0-16 1.8-22.6 5.6-28.1 16.2-34.4 66.7-19.9 130.1-62.2 19.2-102.7 49.9-102.7 82.3 0 32.5 40.7 63.3 103.1 82.4-14.4 63.6-8 114.2 20.2 130.4 6.5 3.8 14.1 5.6 22.5 5.6 27.5 0 63.5-19.6 99.9-53.6 36.4 33.8 72.4 53.2 99.9 53.2 8.4 0 16-1.8 22.6-5.6 28.1-16.2 34.4-66.7 19.9-130.1 62-19.1 102.5-49.9 102.5-82.3zm-130.2-66.7c-3.7 12.9-8.3 26.2-13.5 39.5-4.1-8-8.4-16-13.1-24-4.6-8-9.5-15.8-14.4-23.4 14.2 2.1 27.9 4.7 41 7.9zm-45.8 106.5c-7.8 13.5-15.8 26.3-24.1 38.2-14.9 1.3-30 2-45.2 2-15.1 0-30.2-.7-45-1.9-8.3-11.9-16.4-24.6-24.2-38-7.6-13.1-14.5-26.4-20.8-39.8 6.2-13.4 13.2-26.8 20.7-39.9 7.8-13.5 15.8-26.3 24.1-38.2 14.9-1.3 30-2 45.2-2 15.1 0 30.2.7 45 1.9 8.3 11.9 16.4 24.6 24.2 38 7.6 13.1 14.5 26.4 20.8 39.8-6.3 13.4-13.2 26.8-20.7 39.9zm32.3-13c5.4 13.4 10 26.8 13.8 39.8-13.1 3.2-26.9 5.9-41.2 8 4.9-7.7 9.8-15.6 14.4-23.7 4.6-8 8.9-16.1 13-24.1zm-101.4 106.7c-9.3-9.6-18.6-20.3-27.8-32 9 .4 18.2.7 27.5.7 9.4 0 18.7-.2 27.8-.7-9 11.7-18.3 22.4-27.5 32zm-74.4-58.9c-14.2-2.1-27.9-4.7-41-7.9 3.7-12.9 8.3-26.2 13.5-39.5 4.1 8 8.4 16 13.1 24s9.5 15.8 14.4 23.4zm73.9-208.1c9.3 9.6 18.6 20.3 27.8 32-9-.4-18.2-.7-27.5-.7-9.4 0-18.7.2-27.8.7 9-11.7 18.3-22.4 27.5-32zm-74 58.9c-4.9 7.7-9.8 15.6-14.4 23.7-4.6 8-8.9 16-13 24-5.4-13.4-10-26.8-13.8-39.8 13.1-3.1 26.9-5.8 41.2-7.9zm-90.5 125.2c-35.4-15.1-58.3-34.9-58.3-50.6s22.9-35.6 58.3-50.6c8.6-3.7 18-7 27.7-10.1 5.7 19.6 13.2 40 22.5 60.9-9.2 20.8-16.6 41.1-22.2 60.6-9.9-3.1-19.3-6.5-28-10.2zm53.8 142.9c-13.6-7.8-19.5-37.5-14.9-75.7 1.1-9.4 2.9-19.3 5.1-29.4 19.6 4.8 41 8.5 63.5 10.9 13.5 18.5 27.5 35.3 41.6 50-32.6 30.3-63.2 46.9-84 46.9-4.5-.1-8.3-1-11.3-2.7zm237.2-76.2c4.7 38.2-1.1 67.9-14.6 75.8-3 1.8-6.9 2.6-11.5 2.6-20.7 0-51.4-16.5-84-46.6 14-14.7 28-31.4 41.3-49.9 22.6-2.4 44-6.1 63.6-11 2.3 10.1 4.1 19.8 5.2 29.1zm38.5-66.7c-8.6 3.7-18 7-27.7 10.1-5.7-19.6-13.2-40-22.5-60.9 9.2-20.8 16.6-41.1 22.2-60.6 9.9 3.1 19.3 6.5 28.1 10.2 35.4 15.1 58.3 34.9 58.3 50.6-.1 15.7-23 35.6-58.4 50.6z" />
        <circle cx="420.9" cy="296.5" r="45.7" />
    </g>

    <!-- foreground -->
    <g>
        <path
            d="M9.258 6.342c.158-.23.331-.26.472-.26.14 0 .374.03.532.26 2.06 2.806 6.332 10.208 6.727 10.611.585.597 1.388.225 1.854-.452.46-.667.587-1.135.587-1.634 0-.34-6.653-12.614-7.324-13.636C11.462.248 11.252 0 10.15 0h-.825c-1.1 0-1.259.248-1.903 1.23C6.75 2.254.097 14.528.097 14.868c0 .5.127.967.587 1.634.466.677 1.269 1.05 1.854.452.395-.403 4.661-7.805 6.72-10.61zm14.941-5.237v15.344h9.35v-3.113h-6.125v-3.244h5.45V6.98h-5.45V4.218h6.125V1.105h-9.35zM46.25 16.449l-3.88-5.568 3.619-5.195h-3.662L40.54 8.23l-1.765-2.543h-3.706l3.618 5.217-3.857 5.546h3.661l2.027-2.915 2.027 2.915h3.705zm7.572-10.982c-1.482 0-2.637.614-3.378 1.732V5.686H47.37V20h3.073v-5.063c.74 1.117 1.896 1.731 3.378 1.731 2.768 0 4.97-2.52 4.97-5.611 0-3.091-2.202-5.59-4.97-5.59zm-.697 8.242c-1.504 0-2.681-1.14-2.681-2.652 0-1.49 1.177-2.653 2.68-2.653 1.483 0 2.681 1.184 2.681 2.653 0 1.49-1.198 2.652-2.68 2.652zm12.188-8.242c-3.16 0-5.558 2.411-5.558 5.612 0 3.2 2.397 5.59 5.557 5.59 3.139 0 5.558-2.39 5.558-5.59 0-3.2-2.42-5.612-5.558-5.612zm0 2.96c1.438 0 2.55 1.117 2.55 2.652 0 1.49-1.112 2.63-2.55 2.63-1.46 0-2.55-1.14-2.55-2.63 0-1.535 1.09-2.653 2.55-2.653z"
            fill="url(#updated-gradient)" />
    </g>
    <text x="2" y="25" font-size="10" font-family="lato-bold" fill="url(#updated-gradient)">
        BOILERPLATE
    </text>
</svg>